# Blender 3.4.1
# www.blender.org
mtllib test.mtl
o Cube
v -0.136775 2.689119 5.610588
v -0.136775 5.695129 5.610588
v -0.136775 2.689119 -3.606759
v -0.136775 5.695129 -3.606759
v 0.805037 2.689119 5.610588
v 0.805037 5.695129 5.610588
v 0.805037 2.689119 -3.606759
v 0.805037 5.695129 -3.606759
v -0.136775 3.066635 4.976831
v -0.136775 3.791070 4.382304
v -0.136775 4.385598 3.657869
v -0.136775 4.827372 2.831368
v -0.136775 5.191273 1.001915
v -0.136775 4.827372 -0.827539
v -0.136775 5.099415 0.069267
v -0.136775 5.099415 1.934562
v -0.136775 2.689119 5.178618
v -0.136775 4.385598 -1.654040
v -0.136775 2.689119 -3.174789
v -0.136775 3.066635 -2.973003
v -0.136775 3.791070 -2.378475
v 0.805037 4.827372 2.831368
v 0.805037 5.099415 1.934562
v 0.805037 5.099415 0.069267
v 0.805037 5.191273 1.001915
v 0.805037 3.066635 -2.973003
v 0.805037 3.791070 -2.378475
v 0.805037 4.385598 -1.654040
v 0.805037 4.827372 -0.827539
v 0.805037 2.689119 5.178618
v 0.805037 3.066635 4.976831
v 0.805037 3.791070 4.382304
v 0.805037 2.689119 -3.174789
v 0.805037 4.385598 3.657869
v -0.136775 -7.890434 5.610588
v 0.805037 -7.890434 5.610588
v -0.136775 -7.890434 -3.606759
v 0.805037 -7.890434 -3.606759
v -0.136775 -7.890434 5.178618
v -0.136775 -7.890434 -3.174789
v 0.805037 -7.890434 5.178618
v 0.805037 -7.890434 -3.174789
vn -1.0000 -0.0000 -0.0000
vn -0.0000 -0.0000 -1.0000
vn 1.0000 -0.0000 -0.0000
vn -0.0000 -0.0000 1.0000
vn -0.0000 1.0000 -0.0000
vn -0.0000 -0.4714 -0.8819
vn -0.0000 -0.6344 -0.7730
vn -0.0000 -0.7730 -0.6344
vn -0.0000 -0.8819 -0.4714
vn -0.0000 -0.9569 -0.2903
vn -0.0000 -0.9952 -0.0980
vn -0.0000 -0.9952 0.0980
vn -0.0000 -0.9569 0.2903
vn -0.0000 -0.8819 0.4714
vn -0.0000 -0.7730 0.6344
vn -0.0000 -0.6344 0.7730
vn -0.0000 -0.4714 0.8819
vn -0.0000 -1.0000 -0.0000
vt 0.375000 1.000000
vt 0.375000 0.000000
vt 0.625000 0.000000
vt 0.625000 1.000000
vt 0.875000 0.750000
vt 0.375000 0.250000
vt 0.625000 0.250000
vt 0.875000 0.500000
vt 0.375000 0.750000
vt 0.625000 0.750000
vt 0.375000 0.500000
vt 0.625000 0.500000
vt 0.406397 0.017189
vt 0.406250 0.643979
vt 0.466646 0.033314
vt 0.375000 0.643979
vt 0.516091 0.052963
vt 0.343750 0.643979
vt 0.552831 0.075380
vt 0.312500 0.643979
vt 0.583096 0.125000
vt 0.250000 0.643979
vt 0.552831 0.174620
vt 0.187500 0.643979
vt 0.575456 0.150296
vt 0.218750 0.643979
vt 0.575456 0.099704
vt 0.281250 0.643979
vt 0.420524 0.643979
vt 0.375000 0.011716
vt 0.516091 0.197037
vt 0.156250 0.643979
vt 0.079476 0.643979
vt 0.375000 0.238284
vt 0.406397 0.232811
vt 0.093750 0.643979
vt 0.466646 0.216686
vt 0.125000 0.643979
vt 0.552831 0.674620
vt 0.312500 0.693231
vt 0.575456 0.650296
vt 0.281250 0.693231
vt 0.575456 0.599704
vt 0.218750 0.693231
vt 0.583096 0.625000
vt 0.250000 0.693231
vt 0.406397 0.517189
vt 0.093750 0.693231
vt 0.466646 0.533314
vt 0.125000 0.693231
vt 0.516091 0.552963
vt 0.156250 0.693231
vt 0.552831 0.575380
vt 0.187500 0.693231
vt 0.420524 0.693231
vt 0.375000 0.738284
vt 0.406397 0.732811
vt 0.406250 0.693231
vt 0.466646 0.716685
vt 0.375000 0.693231
vt 0.079476 0.693231
vt 0.375000 0.511716
vt 0.516091 0.697037
vt 0.343750 0.693231
vt 0.125000 0.750000
vt 0.375000 1.000000
vt 0.375000 0.000000
vt 0.375000 0.750000
vt 0.125000 0.500000
vt 0.375000 0.250000
vt 0.375000 0.500000
vt 0.420524 0.643979
vt 0.125000 0.738284
vt 0.375000 0.011716
vt 0.079476 0.643979
vt 0.125000 0.511716
vt 0.375000 0.238284
vt 0.420524 0.693231
vt 0.375000 0.738284
vt 0.079476 0.693231
vt 0.375000 0.511716
s 0
usemtl Material.003
f 1/2/1 2/3/1 4/7/1 3/6/1 19/34/1 20/35/1 21/37/1 18/31/1 14/23/1 15/25/1 13/21/1 16/27/1 12/19/1 11/17/1 10/15/1 9/13/1 17/30/1
f 3/6/2 4/7/2 8/12/2 7/11/2
f 33/62/3 7/11/3 8/12/3 6/10/3 5/9/3 30/56/3 31/57/3 32/59/3 34/63/3 22/39/3 23/41/3 25/45/3 24/43/3 29/53/3 28/51/3 27/49/3 26/47/3
f 5/9/4 6/10/4 2/4/4 1/1/4
f 8/12/5 4/8/5 2/5/5 6/10/5
f 36/68/18 35/65/18 39/73/18 41/79/18
f 40/76/18 37/69/18 38/71/18 42/81/18
f 7/11/3 33/62/3 42/81/3 38/71/3
f 3/6/2 7/11/2 38/71/2 37/70/2
f 30/56/3 5/9/3 36/68/3 41/79/3
f 5/9/4 1/1/4 35/66/4 36/68/4
f 19/34/1 3/6/1 37/70/1 40/77/1
f 1/2/1 17/30/1 39/74/1 35/67/1
usemtl 
f 17/29/2 30/55/2 41/78/2 39/72/2
f 33/61/4 19/33/4 40/75/4 42/80/4
f 9/14/6 31/58/6 30/55/6 17/29/6
f 10/16/7 32/60/7 31/58/7 9/14/7
f 11/18/8 34/64/8 32/60/8 10/16/8
f 12/20/9 22/40/9 34/64/9 11/18/9
f 16/28/10 23/42/10 22/40/10 12/20/10
f 13/22/11 25/46/11 23/42/11 16/28/11
f 15/26/12 24/44/12 25/46/12 13/22/12
f 15/26/13 14/24/13 29/54/13 24/44/13
f 14/24/14 18/32/14 28/52/14 29/54/14
f 18/32/15 21/38/15 27/50/15 28/52/15
f 21/38/16 20/36/16 26/48/16 27/50/16
f 33/61/17 26/48/17 20/36/17 19/33/17
